<mxfile host="app.diagrams.net" modified="2020-05-03T07:21:45.937Z" agent="5.0 (Macintosh; Intel Mac OS X 10_15_4) AppleWebKit/537.36 (KHTML, like Gecko) Chrome/81.0.4044.129 Safari/537.36" etag="qFkcgiC84HSv2Ve3TZSA" version="13.0.5" type="github">
  <diagram id="a-epqaVNrH92tXU7n15A" name="Page-1">
    <mxGraphModel dx="1426" dy="722" grid="1" gridSize="10" guides="1" tooltips="1" connect="1" arrows="1" fold="1" page="1" pageScale="1" pageWidth="827" pageHeight="1169" math="0" shadow="0">
      <root>
        <mxCell id="0" />
        <mxCell id="1" parent="0" />
        <mxCell id="7nLwGRA-xyis2HFyadzK-23" style="edgeStyle=orthogonalEdgeStyle;rounded=0;orthogonalLoop=1;jettySize=auto;html=1;exitX=0.25;exitY=1;exitDx=0;exitDy=0;entryX=0.5;entryY=1;entryDx=0;entryDy=0;strokeWidth=4;" parent="1" source="7nLwGRA-xyis2HFyadzK-1" target="7nLwGRA-xyis2HFyadzK-6" edge="1">
          <mxGeometry relative="1" as="geometry">
            <Array as="points">
              <mxPoint x="253" y="380" />
              <mxPoint x="120" y="380" />
            </Array>
          </mxGeometry>
        </mxCell>
        <mxCell id="7nLwGRA-xyis2HFyadzK-33" style="edgeStyle=orthogonalEdgeStyle;rounded=0;orthogonalLoop=1;jettySize=auto;html=1;exitX=0.5;exitY=1;exitDx=0;exitDy=0;entryX=0.5;entryY=0;entryDx=0;entryDy=0;strokeWidth=4;" parent="1" source="7nLwGRA-xyis2HFyadzK-1" target="7nLwGRA-xyis2HFyadzK-15" edge="1">
          <mxGeometry relative="1" as="geometry" />
        </mxCell>
        <mxCell id="7nLwGRA-xyis2HFyadzK-1" value="&lt;b&gt;&lt;font style=&quot;font-size: 22px&quot;&gt;Virtual Audio Server&lt;/font&gt;&lt;/b&gt;" style="rounded=0;whiteSpace=wrap;html=1;strokeWidth=4;" parent="1" vertex="1">
          <mxGeometry x="210" y="270" width="170" height="80" as="geometry" />
        </mxCell>
        <mxCell id="7nLwGRA-xyis2HFyadzK-22" style="edgeStyle=orthogonalEdgeStyle;rounded=0;orthogonalLoop=1;jettySize=auto;html=1;exitX=0.5;exitY=1;exitDx=0;exitDy=0;entryX=0.75;entryY=1;entryDx=0;entryDy=0;strokeWidth=4;" parent="1" source="7nLwGRA-xyis2HFyadzK-4" target="7nLwGRA-xyis2HFyadzK-1" edge="1">
          <mxGeometry relative="1" as="geometry">
            <Array as="points">
              <mxPoint x="469" y="380" />
              <mxPoint x="338" y="380" />
            </Array>
          </mxGeometry>
        </mxCell>
        <mxCell id="7nLwGRA-xyis2HFyadzK-4" value="" style="shape=image;html=1;verticalAlign=top;verticalLabelPosition=bottom;labelBackgroundColor=#ffffff;imageAspect=0;aspect=fixed;image=https://cdn3.iconfinder.com/data/icons/eightyshades/512/28_Sound-128.png;strokeWidth=4;fillColor=#F83D28;" parent="1" vertex="1">
          <mxGeometry x="430" y="261" width="78" height="78" as="geometry" />
        </mxCell>
        <mxCell id="7nLwGRA-xyis2HFyadzK-25" style="edgeStyle=orthogonalEdgeStyle;rounded=0;orthogonalLoop=1;jettySize=auto;html=1;exitX=0.5;exitY=0;exitDx=0;exitDy=0;entryX=0;entryY=0.25;entryDx=0;entryDy=0;strokeWidth=4;" parent="1" source="7nLwGRA-xyis2HFyadzK-6" target="7nLwGRA-xyis2HFyadzK-9" edge="1">
          <mxGeometry relative="1" as="geometry" />
        </mxCell>
        <mxCell id="7nLwGRA-xyis2HFyadzK-6" value="" style="shape=image;html=1;verticalAlign=top;verticalLabelPosition=bottom;labelBackgroundColor=#ffffff;imageAspect=0;aspect=fixed;image=https://cdn4.iconfinder.com/data/icons/ionicons/512/icon-mic-a-128.png;strokeWidth=4;fillColor=#F83D28;" parent="1" vertex="1">
          <mxGeometry x="70" y="250" width="100" height="100" as="geometry" />
        </mxCell>
        <mxCell id="7nLwGRA-xyis2HFyadzK-9" value="" style="shape=image;html=1;verticalAlign=top;verticalLabelPosition=bottom;labelBackgroundColor=#ffffff;imageAspect=0;aspect=fixed;image=https://cdn2.iconfinder.com/data/icons/pittogrammi/142/03-128.png;strokeWidth=4;fillColor=#F83D28;" parent="1" vertex="1">
          <mxGeometry x="221" y="148" width="150" height="150" as="geometry" />
        </mxCell>
        <mxCell id="7nLwGRA-xyis2HFyadzK-21" style="edgeStyle=orthogonalEdgeStyle;rounded=0;orthogonalLoop=1;jettySize=auto;html=1;exitX=0.5;exitY=1;exitDx=0;exitDy=0;entryX=0.5;entryY=0;entryDx=0;entryDy=0;strokeWidth=4;" parent="1" source="7nLwGRA-xyis2HFyadzK-13" target="7nLwGRA-xyis2HFyadzK-4" edge="1">
          <mxGeometry relative="1" as="geometry" />
        </mxCell>
        <mxCell id="7nLwGRA-xyis2HFyadzK-13" value="" style="shape=image;html=1;verticalAlign=top;verticalLabelPosition=bottom;labelBackgroundColor=#ffffff;imageAspect=0;aspect=fixed;image=https://cdn4.iconfinder.com/data/icons/space-and-astronomy-1/800/robot-128.png;strokeWidth=4;fillColor=#F83D28;" parent="1" vertex="1">
          <mxGeometry x="405" y="70" width="128" height="128" as="geometry" />
        </mxCell>
        <mxCell id="7nLwGRA-xyis2HFyadzK-24" value="&lt;b style=&quot;font-size: 17px&quot;&gt;BLACKBOARD&lt;br&gt;COLLAB&lt;/b&gt;" style="text;html=1;strokeColor=none;fillColor=none;align=center;verticalAlign=middle;whiteSpace=wrap;rounded=0;" parent="1" vertex="1">
          <mxGeometry x="230" y="150" width="130" height="90" as="geometry" />
        </mxCell>
        <mxCell id="7nLwGRA-xyis2HFyadzK-29" value="" style="group" parent="1" vertex="1" connectable="0">
          <mxGeometry x="244.25" y="430" width="101.5" height="190" as="geometry" />
        </mxCell>
        <mxCell id="7nLwGRA-xyis2HFyadzK-14" value="" style="shape=actor;whiteSpace=wrap;html=1;strokeWidth=4;fillColor=none;" parent="7nLwGRA-xyis2HFyadzK-29" vertex="1">
          <mxGeometry x="1" y="30" width="100" height="150" as="geometry" />
        </mxCell>
        <mxCell id="7nLwGRA-xyis2HFyadzK-15" value="" style="shape=image;html=1;verticalAlign=top;verticalLabelPosition=bottom;labelBackgroundColor=#ffffff;imageAspect=0;image=https://cdn3.iconfinder.com/data/icons/streamline-icon-set-free-pack/48/Streamline-49-128.png;strokeWidth=4;fillColor=none;" parent="7nLwGRA-xyis2HFyadzK-29" vertex="1">
          <mxGeometry width="101.5" height="83" as="geometry" />
        </mxCell>
        <mxCell id="GHhjnqwDjHa6O0WxtpdC-1" value="&lt;font style=&quot;font-size: 14px&quot;&gt;&lt;b&gt;You (= your own audio output)&lt;/b&gt;&lt;/font&gt;" style="text;html=1;strokeColor=none;fillColor=none;align=center;verticalAlign=middle;whiteSpace=wrap;rounded=0;" vertex="1" parent="1">
          <mxGeometry x="167.5" y="614" width="255" height="20" as="geometry" />
        </mxCell>
        <mxCell id="GHhjnqwDjHa6O0WxtpdC-3" value="&lt;b style=&quot;color: rgb(0 , 0 , 0) ; font-family: &amp;#34;helvetica&amp;#34; ; font-size: 14px ; font-style: normal ; letter-spacing: normal ; text-align: center ; text-indent: 0px ; text-transform: none ; word-spacing: 0px ; background-color: rgb(248 , 249 , 250)&quot;&gt;The BOT&lt;/b&gt;" style="text;whiteSpace=wrap;html=1;" vertex="1" parent="1">
          <mxGeometry x="440" y="180" width="230" height="30" as="geometry" />
        </mxCell>
      </root>
    </mxGraphModel>
  </diagram>
</mxfile>
